<?xml version="1.0" encoding="utf-8"?>
<!-- Generator: Adobe Illustrator 28.1.0, SVG Export Plug-In . SVG Version: 6.00 Build 0)  -->
<svg version="1.1" id="Layer_1" xmlns="http://www.w3.org/2000/svg" xmlns:xlink="http://www.w3.org/1999/xlink" x="0px" y="0px"
	 viewBox="0 0 443.28 599.89" style="enable-background:new 0 0 443.28 599.89;" xml:space="preserve">
<style type="text/css">
	.st0{fill:none;stroke:#000000;stroke-width:4.4434;}
	.st1{fill:none;stroke:#000000;stroke-width:3.7028;}
	.st2{stroke:#000000;stroke-width:2.9882;}
	.st3{fill:none;stroke:#000000;stroke-width:29.6227;}
	.st4{stroke:#000000;stroke-width:22.217;}
	.st5{fill:none;stroke:#000000;stroke-width:22.217;}
	.st6{fill:none;stroke:#FFFFFF;stroke-width:2.8146;}
	.st7{fill:#FFFFFF;}
	.st8{stroke:#000000;stroke-width:0.8887;}
</style>
<g>
	<path d="M69.25,441.81h305.8c0,0-24.13,113.08-152.95,113.08C222.1,554.89,116.6,570.7,69.25,441.81z"/>
	<g>
		<path class="st0" d="M305.22,325.69c31.58,0,57.16-5.79,57.16-12.93c0-7.15-25.57-12.95-57.16-12.95
			c-31.57,0-57.16,5.8-57.16,12.95C248.05,319.9,273.64,325.69,305.22,325.69z"/>
		<path class="st0" d="M318.11,312.76c0-31.73-5.8-57.45-12.89-57.45c-7.13,0-12.87,25.72-12.87,57.45
			c0,31.73,5.74,57.44,12.87,57.44C312.31,370.19,318.11,344.49,318.11,312.76z"/>
		<path class="st0" d="M296.1,321.9c-22.32-22.4-36.33-44.71-31.3-49.76c5-5.05,27.19,9.03,49.53,31.46
			c22.3,22.45,36.32,44.72,31.29,49.79C340.6,358.44,318.43,344.33,296.1,321.9z"/>
		<path class="st0" d="M296.1,303.6c22.33-22.43,44.5-36.51,49.52-31.46c5.03,5.05-8.98,27.35-31.29,49.76
			c-22.34,22.43-44.53,36.54-49.53,31.49C259.77,348.32,273.79,326.05,296.1,303.6z"/>
	</g>
	<g>
		<polygon class="st1" points="139.49,367.49 189.36,351.71 189.36,281.15 139.49,298.77 89.59,281.15 89.59,351.71 		"/>
		<line class="st1" x1="139.49" y1="298.77" x2="139.49" y2="365.87"/>
	</g>
	<g>
		<polygon class="st2" points="170.27,434.07 83.4,434.07 126.84,408.38 		"/>
		<polygon class="st2" points="266.16,434.07 179.32,434.07 222.76,408.47 		"/>
		<polygon class="st2" points="360.46,434.07 273.6,434.07 317.01,408.18 		"/>
	</g>
	<path class="st3" d="M222.1,558.01c-91.57,0-179.59-75.58-165.78-258.01c0,0-2.95-62.47,46.23-204.84l-13.39,45.56
		c0,0-22.94,54.72,1.08,67.72c0,0,82.22,69.63,107.01-175.26l51.36,0.06c21.77,246.7,105.84,174.26,105.84,174.26
		c19.4-13-0.35-66.69-0.35-66.69l-15.06-45.65c51.82,142.37,47.91,204.91,47.91,204.91c13.8,182.44-74.24,258.01-165.8,258.01
		L222.1,558.01z"/>
	<line class="st4" x1="64.44" y1="232.48" x2="373.62" y2="232.48"/>
	<line class="st4" x1="58.88" y1="390.95" x2="377.93" y2="390.95"/>
	<line class="st5" x1="223.35" y1="227.46" x2="223.35" y2="398.3"/>
	<g>
		<g>
			<path class="st6" d="M147.73,455.5l-18.05,16.73c0,0,16.66,12.63,36.04,0L147.73,455.5z"/>
			<path class="st6" d="M185.44,455.42l-18.04,16.7c0,0,16.66,12.64,36.03,0L185.44,455.42z"/>
			<path class="st6" d="M223.12,455.29l-18.05,16.73c0,0,16.66,12.66,36.02,0L223.12,455.29z"/>
			<path class="st6" d="M260.61,455.36l-18.05,16.74c0,0,16.66,12.6,36.06,0L260.61,455.36z"/>
			<path class="st6" d="M298.09,455.43l-18,16.73c0,0,16.65,12.63,36.06,0L298.09,455.43z"/>
		</g>
		<path class="st7" d="M121.21,485.5c-2.68,4.13,4.02,8.8,0.6,11.84c-2.63,2.33-10.34,2.92-12.79,0.11
			c-0.94-1.06-0.48-4.33,0.53-5.25l9.86-8.75l-1.66-1.91l0.33-3.73l11.2,12.75l-0.23,3.83L121.21,485.5z M118.32,487.95l-7.02,6.21
			c-0.22,0.22-0.42,0.49-0.16,0.78c1.27,1.44,6.43,1.39,7.77,0.07l0.31-0.35C118.37,492.38,117.75,490.43,118.32,487.95z"/>
		<path class="st7" d="M133.35,498.22l-6.7,7.67c-0.42,0.49-0.78,1.31-0.18,1.85c1.51,1.32,3.98,0.33,5.2-0.76
			c-0.35-1.06-0.04-2.32,0.68-3.12c0.9-1.06,2.82-1.65,3.96-0.64c1.77,1.54,0.93,3.86-0.39,5.35c-1.68,1.92-2.81,1.84-4.73,2.9
			l0.08-0.18c-0.03-0.05,0-0.15,0.04-0.12c0.35,0.3-1.32,3.2-1.64,3.57c-2.26,2.57-4.93,2.67-7.49,0.41
			c-3.94-3.47-2.6-10.1,0.23-13.86l0.68,1.65c-0.71,3.21-2.45,6.57,0.61,9.28c1.02,0.87,3.8,2.22,4.93,0.89
			c0.19-0.18,0.48-1.08,0.63-1.36c-1.54-0.1-3.22-0.14-4.45-1.23c-4.74-4.16,4.55-11.8,6.57-14.06l-2.81-2.48l-0.16-3.76l11.16,9.84
			c0.26,0.19,0.87-0.16,1.02-0.34c0.89-0.99-4.32-4.73-5.12-5.45c-1.91-1.66-4.14-5.08-2.04-7.47c0.71-0.8,1.92-1.27,2.97-1.31
			l0.76,1.93c-0.59-0.2-1.53-0.53-1.95,0.07l-0.31,0.41c0.75,2.49,2.45,3.32,4.29,4.95c2.78,2.44,5.07,5.35,2.33,8.9l0.65,0.6
			l0.22,3.83L133.35,498.22z"/>
		<path class="st7" d="M155.01,514.45l-10.5,16.13l-0.9-4.01c1.57-2.43,3.24-4.81,4.82-7.22c1.55-2.37,2.56-7.02-0.33-8.88
			c-1.25-0.84-2.64-1.08-4.05-0.37c0.5,0.18,0.94,0.42,1.36,0.71c1.43,0.94,2.72,3.02,1.64,4.69c-1.34,2.08-4.55,2.77-6.79,3.42
			l-0.76-3.96c1.04-0.04,5.52-0.68,5.87-1.23c0.25-0.35-0.19-0.93-0.49-1.09c-1.1-0.74-2.78,0.01-3.94-0.74
			c-1.06-0.71-1.01-2.68-0.4-3.62c1.7-2.6,5.63-2.68,8.04-1.1c3.8,2.52,3.6,5.91,2.79,9.9c0.93-2.75,2.04-5.23,3.64-7.63l1.23-1.81
			l0.87,2.6c-0.29,0.15-0.56,0.42-0.72,0.67c-0.07,0.12-0.14,0.78-0.15,0.94c0.31,0.41,0.79,0.91,1.31,1.02l0.76,3.76L155.01,514.45
			z"/>
		<path class="st7" d="M142.83,524.08c-1.43-0.79-2.9-1.42-4.32-2.19c-2.94-1.65-4.81-5.1-3.04-8.31c0.27-0.49,1.77-1.88,2.29-2.33
			l0.55,1.62c-0.29,0.2-0.53,0.41-0.68,0.71c-2.66,4.78,8.69,6.39,9.63,12.4c0.48,3.09,0.9,3.28-0.76,6.21l-0.14,0.24
			C144.68,528.96,147.91,526.93,142.83,524.08z"/>
		<path class="st7" d="M163.17,518.62l-8.87,17.41l-1.12-3.53l5.67-11.13c1.2-2.36,1.72-4.29-1.29-5.49l-1.31-3.71l3.49,1.78
			c0.95,0.49,1.36,1.77,1.51,2.77c0.15,1.39-0.26,2.68-0.38,4.03l0,0c0.08,0.05,0.11-0.08,0.11-0.1c1.01-2,0.63-4.66,1.69-6.72
			c0.3-0.57,0.65-1.12,1.06-1.61l0.65,1.25l-0.22,2.64l1.21,0.63l1.15,3.49L163.17,518.62z"/>
		<path class="st7" d="M180.23,526l-6.91,17.87c-0.97-1.36-0.38-8.79-2.73-9.7h-0.03c-0.54,0.84-3.11,0.8-3.99,0.45
			c-1.89-0.72-2.95-2.37-2.15-4.39c1.02-2.7,4.05-2.44,6.07-1.09c1.29-4.28-3.47-5.04-4.18-6.74c-0.72-1.83-1.33-3.65-2.05-5.49
			l17.85,6.99l1.53,3.46L180.23,526z M177.77,525.14l-6.88-2.7c1.17,1.7,2.45,4.14,2.18,6.31c-0.11,1.2-0.11,2.36-0.69,3.41
			c0.63,0.9,1.05,2.38,1.35,3.46L177.77,525.14z"/>
		<path class="st7" d="M204.39,523.14c-3.39-0.65-5.11,0.63-7.18,3.12l0.35,1.44l1.92,0.35l2.13,3.21l-3.77-0.75l-3.58,18.72
			l-2.19-2.98l3.15-16.25l-2.52-0.45l-2.18-3.22l4.89,0.95c-0.46-0.78-1.09-1.39-0.91-2.36c0.69-3.61,5.31-5.48,8.57-4.84
			c4.82,0.94,7.57,4.09,10.49,7.59l0.38,2.47C211.06,527.13,208.67,523.97,204.39,523.14z"/>
		<path class="st7" d="M215.5,532.69l-1.74,19.26c-2.85-1.62-1.59-8.91-10.52-10.37l-2.47-3.88c3.43-1.88,8.09-4.46,11.85-5.23
			l-11.85-1.12l-2.36-2.92l18.76,1.7l2.36,2.92L215.5,532.69z M212.48,536.67c-2.26,0.52-4.4,1.44-6.5,2.51
			c2.22,1.2,4.56,3.21,5.79,5.42L212.48,536.67z"/>
		<path class="st7" d="M236.7,532.19l1.02,18.65l-2.9-2.34l-0.5-11.25c-0.11-1.49-2.04-3.46-3.32-3.91l-1.16,0.35l-0.44,0.68
			c1.4,0.69,2.83,2.1,2.9,3.79c0.07,1.4-1.27,2.56-2.6,2.64c-1.2,0.05-2.34-0.6-2.9-1.69c-0.64,1.02-1.46,2-2.75,2.07
			c-1.53,0.08-3.01-1.05-3.09-2.59c-0.08-1.35,1.53-3.84,2.87-4.26c-1.74-1.83-2.15-1.39-4.82-1.2l-2.82-2.55l4.85-0.27
			c1.92-0.08,3.73,1.06,4.56,2.82c0.67-1.21,2.67-3.16,4.07-3.26c3-0.14,4.65,4.66,5.71,6.63c-0.79-2.97-1.4-5.9-1.55-8.96
			l-0.08-1.57c2.37,1.87,2.13,3.38,3.88,3.41l2.79,2.63L236.7,532.19z"/>
		<path class="st7" d="M238.08,551.54c-0.83-1.87-5.49-3.09-7.41-2.83l-2.78-3.77c2.03-1.87,6.5-5.99,9.07-6.35
			c0.41-0.07,0.79-0.2,1.16-0.41l1.99,13.9L238.08,551.54z M236.21,541.52c-0.97,0.67-3.76,2.86-4.11,3.9
			c1.51,0.03,3.95,2.03,5.03,2.96L236.21,541.52z"/>
		<path class="st7" d="M248.47,521.61c-3.39,0.57-4.58,2.36-5.67,5.44l0.84,1.24l1.93-0.34l3.08,2.26l-3.79,0.64l3.15,18.77
			l-3.12-2.02l-2.67-16.31l-2.52,0.41l-3.13-2.22l4.91-0.84c-0.71-0.54-1.51-0.93-1.66-1.87c-0.6-3.64,3.08-6.98,6.36-7.56
			c4.82-0.8,8.5,1.19,12.44,3.46l1.23,2.18C256.12,523.03,252.78,520.88,248.47,521.61z"/>
		<path class="st7" d="M262.14,526.64l5.1,18.69c-3.27-0.54-4.58-7.81-13.46-6.04l-3.66-2.81c2.53-2.93,6.02-6.99,9.29-9.05
			l-11.54,3.12l-3.19-1.91l18.2-5l3.2,1.92L262.14,526.64z M260.71,531.45c-1.93,1.28-3.6,2.9-5.22,4.6
			c2.49,0.37,5.39,1.43,7.32,3.07L260.71,531.45z"/>
		<path class="st7" d="M269.48,524.09l2.94,6.83c1.12-4.31,2.18-5.67,5.19-8.72l4.59,0.99c-0.42,3.32-0.11,6.47,1.19,9.58
			c0.75,1.77,1.88,3.42,3,4.95l-2.36-0.11c-1.68-2.18-3.24-4.35-4.35-6.89c-0.52-1.23-0.83-2.53-1.05-3.84
			c-2.51,2.34-3.71,5.94-3.68,9.36l-4.03-1.53l-4.05-9.5l-1.85,0.79l-3.51-1.44l17.91-7.72l3.58,1.44L269.48,524.09z"/>
		<path class="st7" d="M289.94,513.88c-1.62,0.93-2.52,2.41-1.51,4.17c1.72,3.11,4.37,5.49,6.13,8.6c1.28,2.32,0.22,6.85-2.13,8.19
			c-0.56,0.3-1.35,0.31-1.69-0.29c-0.45-0.87,3.16-2.63,1.06-6.36c-1.24-2.21-3.61-3.62-4.9-5.94c-1.24-2.18-0.91-3.83-0.64-6.14
			l-4.16,2.37l-3.72-1.05l9.21-5.2l3.77,0.95C290.91,513.38,290.39,513.6,289.94,513.88z"/>
		<path class="st7" d="M295.29,510.37l10.73,16.32l-3.6-0.76l-6.88-10.45c-1.43-2.21-2.86-3.61-5.39-1.57l-3.83-0.68l3.26-2.17
			c0.9-0.6,2.21-0.3,3.16,0.04c1.25,0.53,2.18,1.54,3.31,2.32l0,0c0.07-0.04-0.04-0.11-0.05-0.15c-1.23-1.85-3.72-2.85-4.99-4.8
			c-0.37-0.52-0.64-1.1-0.86-1.7l1.4,0.03l2.18,1.51l1.16-0.76l3.6,0.72L295.29,510.37z"/>
		<path class="st7" d="M311.64,497.83l12.21,14.73l-3.69-0.08l-6.51-7.9c-0.48-0.59-2.15-0.8-2.81-0.26
			c-1.24,1.04,0.22,2.13,1.02,2.81l-1.09,1.81c-0.05-0.27-0.11-0.5-0.29-0.74c-1.08-1.29-3.49-0.71-4.61,0.22
			c-1.29,1.06-1.56,2.94-0.48,4.24c0.55,0.69,1.54,0.74,2.29,0.44c-0.26-0.12-0.45-0.3-0.64-0.54c-0.82-0.99-0.5-2.47,0.44-3.26
			c1.39-1.21,3.5,0.01,4.51,1.24c0.76,0.94-0.5,2.98-1.23,3.57c-2.45,2.03-5.78,2.11-7.9-0.42c-1.62-1.98-2.12-5.33,0-7.11
			c1.09-0.9,2.58-1.51,4-1.2c0.18-0.82,0.5-2.41,1.14-2.96c1.58-1.29,1.68-0.63,3.13-0.54c0.09,0.05,0.57,0.46,0.65,0.41
			c0.05-0.07-0.11-0.15-0.14-0.19l-2.07-2.52l-11.26,9.39l-4.01-0.19l16.19-13.53l3.99,0.18L311.64,497.83z"/>
		<path class="st7" d="M324,484.61l14.3,12.92c-5.84,0.26-8.32-2.66-13.49,2.55l-4.48-0.18c-0.08-2.33-0.03-4.82,0.27-7.14
			c-4.9,1.79-3.75,3.26-10.41,3.22l12.3-13.76l3.92-0.29L324,484.61z M328.25,502.65c-0.9-0.83-0.93-2.32-0.12-3.26
			c0.79-0.87,2.38-1.23,3.36-0.37c0.9,0.83,0.95,2.36,0.14,3.27C330.82,503.19,329.23,503.52,328.25,502.65z M322.21,486.63
			l-3.62,4.05c1.84-0.34,3.69-0.33,5.56-0.27c0.11,2.03-0.07,4.01,0.2,6.1c2.18-1.25,4.69-1.8,7.19-1.44L322.21,486.63z"/>
	</g>
	<g>
		<path class="st8" d="M224.09,153.48c1.03,3.72,1.98,7.39,3.08,11.11c0.19,0.66,0.58,1.33,0.41,2.13
			c-0.42,2.43-1.68,4.14-2.63,6.13c0.67-1.36,1.32-2.72,2-4.06c-0.65,1.76-1.55,3.18-2.31,4.79c0.68-1.36,1.36-2.7,2.01-4.02
			c-1.65,4.37-4.28,6.88-6.97,9.1c-2.44,1.98-7.2,4.7-9.86,5.5c-0.93,0.27-0.81-0.43-1.72-0.42c-0.71-1.06-1.52-2.49-1.82-4.41
			v-2.44c-0.03,1.52,1.72,2.63,2.92,3.08c2.44,0.43,6.96-2.83,9.42-3.75c3.07-1.11,5.53-3.83,8.04-6.65
			c-0.65,1.32-1.33,2.66-2.01,4.02c0.77-1.55,1.49-3.02,2.23-4.56c-0.65,1.37-1.36,2.7-2.01,4.08c0.69-1.72,1.56-3.2,2.33-4.8
			c-0.68,1.34-1.36,2.66-2.01,4.04c0.23-0.62,0.51-1.37,0.3-2.1c-1.26-4.18-2.34-8.27-3.46-12.44L224.09,153.48z"/>
		<path class="st8" d="M225.53,172.15c2,2.1,4.47,2.26,6.26,5.14c0.1,0.19,0.12,0.55,0.04,0.69c-0.64,1.88-1.2,3.66-2.07,5.15
			c0.55-1.43,1.14-2.89,1.71-4.33c-0.77,1.85-1.45,3.82-2.31,5.55c-3.73,3.86-7.96,5.6-12.24,7.54c-1.95,0.85-3.83,1.66-5.77,2.11
			c-2.63,0.61-10.67,2.33-12.57,1.87l-7.87-7.02c1.74,2.6,13.29,4.21,20.39,1.04c2.5-1.1,5.05-1.58,7.62-2.66
			c4.17-1.75,8.16-3.63,11.9-7.12c0.35-0.29,0.56-0.87,0.84-1.32c-0.56,1.45-1.16,2.89-1.71,4.33c0.68-1.71,1.14-3.73,2.13-5.11
			c-0.62,1.48-1.23,2.94-1.84,4.4c-1.4-3.44-4.4-3.3-6.36-5.63L225.53,172.15z"/>
		<path class="st8" d="M242.08,150.04c-0.03,3.1,0.9,5.73,1.63,8.43c-0.3,2.98-0.65,6.07-1.95,8.4c-1.22,2.14-2.37,3.85-3.8,5.39
			c-1.81,1.98-3.66,3.63-5.81,3.98c-0.35,0.06-0.77,0.58-1.07-0.93l2.47-3.62c0.1,0.27,0.17,0.74,0.27,0.75
			c2.68,0.49,5.16-2.21,7.39-4.63c-0.64,0.9-1.27,1.81-1.9,2.72c1.14-2.33,1.76-5.41,1.82-8.48c0.03-0.82-0.35-1.69-0.64-2.49
			c-0.64-1.78-0.84-3.86-0.93-5.93L242.08,150.04z"/>
		<path class="st8" d="M252.35,162.2c-2.16,0.93-4.32,2.02-5.93,4.86c-1.69,2.98-3.01,6.28-4.9,8.98c-3.1,4.38-6.75,6.7-10.65,6.97
			l-2.11,4.31c2.65-0.36,5.24-1.2,7.62-3.49c1.58-1.48,2.95-3.14,4.21-5.32c1.36-2.33,2.4-4.82,3.73-7.15
			c1.62-2.83,3.82-3.95,5.92-4.89L252.35,162.2z"/>
		<path class="st8" d="M258.02,167.87c-4.02,8.49-8.79,15.85-15,20.24c-5.67,3.96-11.3,5.87-17.18,5.55l2.52-3.59
			c8.81-0.03,18.02-3.66,24.86-13.64c-0.19,0.26-0.43,0.49-0.62,0.74c1.07-1.75,2.08-3.6,2.91-5.7L258.02,167.87z"/>
		<path class="st8" d="M226.46,188.93c0.77,1.1,1.68,1.79,2.31,3.14c-0.3,2.26-1.61,3.92-2.55,5.83c-1.55,0.85-3.12,1.19-4.73,1.63
			c-0.56-1.22-0.26-2.91,0.28-3.96c0.94-1.92,1.62-3.93,2.81-5.53c0.81-1.03,1.74-1.19,2.62-1.76c-1.22,3.18-2.83,5.42-4.63,7.8
			c-3.46,4.57-6.89,8.29-10.76,11.38c-5.7,4.54-12.11,5.5-18.2,3.44l-9.59-4.51c5.24,1.71,22.36,1.68,27.42-1.55
			c5.86-3.75,10.99-9.78,15.75-16.56c-0.74,1.46-1.39,3.05-2.27,4.28c-0.74,0.9-1.68,0.82-2.44,1.76c-0.32,0.35-0.49,0.81-0.71,1.24
			c0.65-1.35,1.3-2.65,1.97-3.99c-0.42,0.98-0.67,2.57-0.14,3.63c1.65-0.58,3.38-0.51,4.95-1.97c-0.68,1.33-1.36,2.69-2.04,4.02
			c0.04-0.32,0.25-0.64,0.16-0.87c-0.56-1.5-1.55-2.04-2.27-3.15L226.46,188.93z"/>
		<g>
			<path class="st8" d="M219.07,149.1c2.23,3.76,5.44,0.97,7.36-0.03c2.46-1.33,3.8-5.53,5.41-8.69c-0.61,1.29-1.24,2.63-1.89,3.93
				c1-1.97,2.1-3.78,2.76-6.18c0.43-1.5,0.61-3.15,1.04-4.69c-0.9,1.63-1.75,3.23-2.43,5.11c0.62-1.33,1.27-2.69,1.94-4.04
				c-1.13,2.2-2.83,3.54-4.6,2.91c-1.06-0.36-2.08-1.22-2.44-2.99c-0.55-2.56,0.25-5.14,0.68-7.59c-0.61,1.29-1.23,2.55-1.85,3.83
				c0.75-1.53,1.5-3.07,2.21-4.61c-0.59,1.3-1.2,2.56-1.79,3.83c1.72-3.38,4.4-4.19,6.58-6.23l2.13-4.3
				c-1.74,1.46-3.54,2.34-5.21,4.17c-1.71,1.85-2.68,4.69-3.92,7.15c0.62-1.29,1.24-2.55,1.85-3.83c-1.85,2.89-3.39,7.46-2.79,11.9
				c1.01,3.41,3.7,3.95,5.51,2.17c1.71-1.71,2.82-4.54,3.96-7.19c-1.68,2.17-2.26,5.5-2.95,8.72c-0.15,0.56-0.3,1.13-0.54,1.61
				c0.64-1.36,1.29-2.68,1.94-4.04c-0.82,1.62-1.62,3.37-2.41,5.05c0.61-1.3,1.21-2.6,1.79-3.9c-0.81,1.53-1.66,3.08-2.88,3.63
				c-1.95,0.85-5.84,3.41-7.1,0c-1.26-3.41-0.32-69.94-0.32-69.94l-2.76,6.33C218.34,81.17,217.65,146.69,219.07,149.1z"/>
			<path class="st8" d="M204.24,129.63c0.07,7.75,0.06,15.53,0.41,23.3c0.75,1.81,2.3,2.27,3.53,1.88c0.69-0.22,1.37-0.65,1.88-1.53
				c-0.62,1.32-1.29,2.63-1.92,3.93c0.87-1.71,1.71-3.41,2.62-5.09c-0.64,1.27-1.27,2.55-1.88,3.82c0.97-2.02,1.88-4.12,3.09-5.73
				c-0.64,1.26-1.29,2.53-1.94,3.76c1.3-2.17,2.21-5.18,3.83-6.77c-0.59,1.17-1.19,2.36-1.79,3.54c0.91-1.75,1.72-3.59,2.69-5.25
				c-0.81,2.6-1.94,4.79-3.14,6.86c0.65-1.29,1.29-2.53,1.92-3.82c-0.74,2.01-1.68,3.76-2.59,5.57c0.62-1.27,1.29-2.52,1.91-3.79
				c-0.26,1.81-1.07,3.4-1,5.37c1.55,0.12,3.4,0.26,4.4-2.21c-0.68,1.3-1.3,2.55-1.98,3.86c0.69-2.18,1.37-5.41,0.4-7.65
				c-0.98-0.58-2.18-0.54-3.04,0.61c0.78-1.5,1.45-3.12,2.37-4.47c0.67-0.93,1.56-1.03,2.33-1.81c1.24-1.26,2.23-2.86,3.28-4.47
				c-0.61,1.23-1.23,2.44-1.82,3.66c0.04-0.12,0.09-0.25,0.16-0.39l2.11-4.3c-2.13,5.19-4.87,9.73-8.43,11.77
				c1-3.24,2.89-6.45,5.15-4.92c0.98,2.17,0.33,5.09-0.3,7.23c-0.84,2.76-1.94,5.29-3.51,6.81c-0.97,0.91-2.13,0.67-3.23,0.58
				c0.3-4.22,1.82-7.74,3.51-10.63c-0.67,1.3-1.32,2.57-2,3.86c0.85-2.15,1.85-4.06,2.89-5.96c-0.68,1.35-1.33,2.63-1.97,3.93
				c0.12-0.51,0.27-0.95,0.48-1.37c-0.22,0.32-0.4,0.62-0.61,0.93c0.61-1.19,1.2-2.37,1.79-3.54c-1.1,2.58-2.47,4.61-3.83,6.77
				c0.65-1.29,1.3-2.52,1.94-3.76c-1,2-1.85,4.17-3.09,5.73c0.61-1.27,1.24-2.55,1.88-3.82c-0.88,1.72-1.52,3.75-2.62,5.09
				c0.64-1.3,1.3-2.62,1.92-3.93c-0.94,1.75-1.58,4.02-2.85,5.19c-1.48,1.3-3.23,0.85-4.57-0.82c-0.54-7.8-0.35-15.82-0.46-23.71
				L204.24,129.63z"/>
		</g>
		<path class="st8" d="M232.26,146.71c1.76,3.6,3.56,7.15,5.12,11.05c-1.29,8.84-7.32,11.92-11.93,13.25l2.1-4.27
			c3.08-0.91,6.2-2.63,8.95-5.37c-0.62,1.26-1.23,2.56-1.87,3.8c0.42-0.91,0.87-2.1,0.58-3.04c-1.36-4.22-3.28-7.52-5.05-11.09
			L232.26,146.71z"/>
	</g>
	<g>
		<polyline class="st1" points="104.42,262.7 137.74,297.19 93.68,271 		"/>
		<polyline class="st1" points="127.63,257.45 137.74,297.19 116.31,259.62 		"/>
		<line class="st1" x1="138.96" y1="256.38" x2="139.23" y2="296.69"/>
		<line class="st1" x1="140" y1="296.83" x2="150.92" y2="257.69"/>
		<line class="st1" x1="161.85" y1="260.01" x2="140.46" y2="296.69"/>
		<line class="st1" x1="173.1" y1="263.87" x2="141.4" y2="296.07"/>
		<line class="st1" x1="185.11" y1="272.07" x2="139.23" y2="297.6"/>
	</g>
</g>
</svg>
